# xmcd
#
# Track frame offsets:
#	150
#	17235
#	33410
#	50392
#	76585
#	94575
#	122437
#	143877
#	163432
#	187527
#	209820
#
# Disc length: 3011 seconds
#
# Revision: 1
# Processed by: cddbd v1.4PL0 Copyright (c) Steve Scherf et al.
# Submitted via: audiograbber 1.81.00
#
DISCID=8a0bc10b
DTITLE=Emma Gibbs Band - SevenEven
DYEAR=1999
DGENRE=Country
TTITLE0=Travelin' Tune
TTITLE1=This Heart
TTITLE2=Ragtop Highway
TTITLE3=Unstuck
TTITLE4=Down By Law
TTITLE5=As I Walk On
TTITLE6=What They're Going To Say
TTITLE7=Radio Blues
TTITLE8=The Waiter
TTITLE9=Damn Morning
TTITLE10=78
EXTD=
EXTT0=
EXTT1=
EXTT2=
EXTT3=
EXTT4=
EXTT5=
EXTT6=
EXTT7=
EXTT8=
EXTT9=
EXTT10=
PLAYORDER=
